# xmcd
#
# Track frame offsets: 
#        150
#        17597
#        37757
#        56930
#        77445
#        94870
#        116750
#        137300
#        152292
#        168515
#        186512
#        202290
#
# Disc length: 2952 seconds
#
# Revision: 3
# Processed by: cddbd v1.5.2PL0 Copyright (c) Steve Scherf et al.
# Submitted via: ExactAudioCopy v0.95b2
#
DISCID=970b860c
DTITLE=Vargas Blues Band - Feedback
DYEAR=1998
DGENRE=Blues
TTITLE0=Changes
TTITLE1=Back To The City
TTITLE2=Sangre Española
TTITLE3=Para Guarachar
TTITLE4=Whole Lotta Love
TTITLE5=Qué Quiere Mi China
TTITLE6=Amor Verdadero
TTITLE7=Spanish Fly
TTITLE8=I'm Amazed
TTITLE9=Make Sweet Love 2 U
TTITLE10=Everybody's Looking For Love
TTITLE11=NYC Blues
EXTD=YEAR: 1998
EXTT0=
EXTT1=
EXTT2=
EXTT3=
EXTT4=
EXTT5=
EXTT6=
EXTT7=
EXTT8=
EXTT9=
EXTT10=
EXTT11=
PLAYORDER=
